<mxfile host="app.diagrams.net" modified="2024-02-13T18:04:34.860Z" agent="Mozilla/5.0 (Windows NT 10.0; Win64; x64) AppleWebKit/537.36 (KHTML, like Gecko) Chrome/121.0.0.0 Safari/537.36 Edg/121.0.0.0" etag="XvdY4xCz_DcyD-8C-nzs" version="23.1.3" type="device">
  <diagram name="Страница — 1" id="fKBUCXl6949Xtr6X0akW">
    <mxGraphModel dx="1380" dy="838" grid="1" gridSize="10" guides="1" tooltips="1" connect="1" arrows="1" fold="1" page="1" pageScale="1" pageWidth="827" pageHeight="1169" math="0" shadow="0">
      <root>
        <mxCell id="0" />
        <mxCell id="1" parent="0" />
        <mxCell id="wD-DXvXVYZgzZNdiQsJs-159" value="" style="edgeStyle=orthogonalEdgeStyle;rounded=0;orthogonalLoop=1;jettySize=auto;html=1;" edge="1" parent="1" source="qY3sZJ4gQ_pa9tfZXsVX-1" target="wD-DXvXVYZgzZNdiQsJs-158">
          <mxGeometry relative="1" as="geometry" />
        </mxCell>
        <mxCell id="qY3sZJ4gQ_pa9tfZXsVX-1" value="partition (list,&lt;br&gt;left, right, atr, dir)" style="strokeWidth=1;html=1;shape=mxgraph.flowchart.terminator;whiteSpace=wrap;" parent="1" vertex="1">
          <mxGeometry x="180" y="50" width="120" height="60" as="geometry" />
        </mxCell>
        <mxCell id="qY3sZJ4gQ_pa9tfZXsVX-28" value="&lt;span style=&quot;font-size: 20px;&quot;&gt;2&lt;/span&gt;" style="text;html=1;align=center;verticalAlign=middle;whiteSpace=wrap;rounded=0;" parent="1" vertex="1">
          <mxGeometry x="410" y="10" width="60" height="30" as="geometry" />
        </mxCell>
        <mxCell id="qY3sZJ4gQ_pa9tfZXsVX-29" value="&lt;span style=&quot;font-size: 20px;&quot;&gt;1&lt;/span&gt;" style="text;html=1;align=center;verticalAlign=middle;whiteSpace=wrap;rounded=0;" parent="1" vertex="1">
          <mxGeometry x="210" y="10" width="60" height="30" as="geometry" />
        </mxCell>
        <mxCell id="qY3sZJ4gQ_pa9tfZXsVX-30" value="&lt;span style=&quot;font-size: 20px;&quot;&gt;3&lt;/span&gt;" style="text;html=1;align=center;verticalAlign=middle;whiteSpace=wrap;rounded=0;" parent="1" vertex="1">
          <mxGeometry x="610" y="10" width="60" height="30" as="geometry" />
        </mxCell>
        <mxCell id="qY3sZJ4gQ_pa9tfZXsVX-31" value="&lt;span style=&quot;font-size: 20px;&quot;&gt;A&lt;/span&gt;" style="text;html=1;align=center;verticalAlign=middle;whiteSpace=wrap;rounded=0;" parent="1" vertex="1">
          <mxGeometry x="100" y="65" width="60" height="30" as="geometry" />
        </mxCell>
        <mxCell id="qY3sZJ4gQ_pa9tfZXsVX-32" value="&lt;span style=&quot;font-size: 20px;&quot;&gt;B&lt;/span&gt;" style="text;html=1;align=center;verticalAlign=middle;whiteSpace=wrap;rounded=0;" parent="1" vertex="1">
          <mxGeometry x="100" y="185" width="60" height="30" as="geometry" />
        </mxCell>
        <mxCell id="qY3sZJ4gQ_pa9tfZXsVX-33" value="&lt;span style=&quot;font-size: 20px;&quot;&gt;C&lt;/span&gt;" style="text;html=1;align=center;verticalAlign=middle;whiteSpace=wrap;rounded=0;" parent="1" vertex="1">
          <mxGeometry x="100" y="305" width="60" height="30" as="geometry" />
        </mxCell>
        <mxCell id="qY3sZJ4gQ_pa9tfZXsVX-34" value="&lt;span style=&quot;font-size: 20px;&quot;&gt;D&lt;/span&gt;" style="text;html=1;align=center;verticalAlign=middle;whiteSpace=wrap;rounded=0;" parent="1" vertex="1">
          <mxGeometry x="100" y="425" width="60" height="30" as="geometry" />
        </mxCell>
        <mxCell id="qY3sZJ4gQ_pa9tfZXsVX-35" value="&lt;span style=&quot;font-size: 20px;&quot;&gt;E&lt;/span&gt;" style="text;html=1;align=center;verticalAlign=middle;whiteSpace=wrap;rounded=0;" parent="1" vertex="1">
          <mxGeometry x="100" y="545" width="60" height="30" as="geometry" />
        </mxCell>
        <mxCell id="qY3sZJ4gQ_pa9tfZXsVX-36" value="&lt;span style=&quot;font-size: 20px;&quot;&gt;F&lt;/span&gt;" style="text;html=1;align=center;verticalAlign=middle;whiteSpace=wrap;rounded=0;" parent="1" vertex="1">
          <mxGeometry x="100" y="665" width="60" height="30" as="geometry" />
        </mxCell>
        <mxCell id="qY3sZJ4gQ_pa9tfZXsVX-75" value="&lt;span style=&quot;font-size: 20px;&quot;&gt;G&lt;/span&gt;" style="text;html=1;align=center;verticalAlign=middle;whiteSpace=wrap;rounded=0;" parent="1" vertex="1">
          <mxGeometry x="100" y="785" width="60" height="30" as="geometry" />
        </mxCell>
        <mxCell id="wD-DXvXVYZgzZNdiQsJs-183" style="edgeStyle=orthogonalEdgeStyle;rounded=0;orthogonalLoop=1;jettySize=auto;html=1;" edge="1" parent="1" source="wD-DXvXVYZgzZNdiQsJs-4" target="wD-DXvXVYZgzZNdiQsJs-181">
          <mxGeometry relative="1" as="geometry" />
        </mxCell>
        <mxCell id="wD-DXvXVYZgzZNdiQsJs-184" style="edgeStyle=orthogonalEdgeStyle;rounded=0;orthogonalLoop=1;jettySize=auto;html=1;" edge="1" parent="1" source="wD-DXvXVYZgzZNdiQsJs-4" target="wD-DXvXVYZgzZNdiQsJs-182">
          <mxGeometry relative="1" as="geometry" />
        </mxCell>
        <mxCell id="wD-DXvXVYZgzZNdiQsJs-4" value="left == 0?" style="rhombus;whiteSpace=wrap;html=1;" vertex="1" parent="1">
          <mxGeometry x="160" y="280" width="160" height="80" as="geometry" />
        </mxCell>
        <mxCell id="wD-DXvXVYZgzZNdiQsJs-49" value="&lt;font style=&quot;font-size: 20px;&quot;&gt;да&lt;/font&gt;" style="text;html=1;align=center;verticalAlign=middle;whiteSpace=wrap;rounded=0;" vertex="1" parent="1">
          <mxGeometry x="230" y="350" width="60" height="30" as="geometry" />
        </mxCell>
        <mxCell id="wD-DXvXVYZgzZNdiQsJs-52" value="&lt;font style=&quot;font-size: 20px;&quot;&gt;нет&lt;/font&gt;" style="text;html=1;align=center;verticalAlign=middle;whiteSpace=wrap;rounded=0;" vertex="1" parent="1">
          <mxGeometry x="300" y="290" width="60" height="30" as="geometry" />
        </mxCell>
        <mxCell id="wD-DXvXVYZgzZNdiQsJs-152" value="&lt;span style=&quot;font-size: 20px;&quot;&gt;H&lt;/span&gt;" style="text;html=1;align=center;verticalAlign=middle;whiteSpace=wrap;rounded=0;" vertex="1" parent="1">
          <mxGeometry x="100" y="905" width="60" height="30" as="geometry" />
        </mxCell>
        <mxCell id="wD-DXvXVYZgzZNdiQsJs-160" value="" style="edgeStyle=orthogonalEdgeStyle;rounded=0;orthogonalLoop=1;jettySize=auto;html=1;" edge="1" parent="1" source="wD-DXvXVYZgzZNdiQsJs-158" target="wD-DXvXVYZgzZNdiQsJs-4">
          <mxGeometry relative="1" as="geometry" />
        </mxCell>
        <mxCell id="wD-DXvXVYZgzZNdiQsJs-158" value="pivot = left&lt;br&gt;ptrToIndx(list, &amp;amp;ptrLeft, left)" style="rounded=0;whiteSpace=wrap;html=1;" vertex="1" parent="1">
          <mxGeometry x="180" y="170" width="120" height="60" as="geometry" />
        </mxCell>
        <mxCell id="wD-DXvXVYZgzZNdiQsJs-186" value="" style="edgeStyle=orthogonalEdgeStyle;rounded=0;orthogonalLoop=1;jettySize=auto;html=1;" edge="1" parent="1" source="wD-DXvXVYZgzZNdiQsJs-181" target="wD-DXvXVYZgzZNdiQsJs-185">
          <mxGeometry relative="1" as="geometry" />
        </mxCell>
        <mxCell id="wD-DXvXVYZgzZNdiQsJs-181" value="prevPiv = NULL&lt;br&gt;prevI = list-&amp;gt;head" style="rounded=0;whiteSpace=wrap;html=1;" vertex="1" parent="1">
          <mxGeometry x="180" y="410" width="120" height="60" as="geometry" />
        </mxCell>
        <mxCell id="wD-DXvXVYZgzZNdiQsJs-187" style="edgeStyle=orthogonalEdgeStyle;rounded=0;orthogonalLoop=1;jettySize=auto;html=1;" edge="1" parent="1" source="wD-DXvXVYZgzZNdiQsJs-182" target="wD-DXvXVYZgzZNdiQsJs-185">
          <mxGeometry relative="1" as="geometry">
            <Array as="points">
              <mxPoint x="440" y="500" />
              <mxPoint x="240" y="500" />
            </Array>
          </mxGeometry>
        </mxCell>
        <mxCell id="wD-DXvXVYZgzZNdiQsJs-182" value="ptrToIndx(list, &amp;amp;prevPiv, left-1)&lt;br&gt;prevI = prevPiv-&amp;gt;next" style="rounded=0;whiteSpace=wrap;html=1;" vertex="1" parent="1">
          <mxGeometry x="380" y="410" width="120" height="60" as="geometry" />
        </mxCell>
        <mxCell id="wD-DXvXVYZgzZNdiQsJs-189" value="" style="edgeStyle=orthogonalEdgeStyle;rounded=0;orthogonalLoop=1;jettySize=auto;html=1;" edge="1" parent="1" source="wD-DXvXVYZgzZNdiQsJs-185" target="wD-DXvXVYZgzZNdiQsJs-188">
          <mxGeometry relative="1" as="geometry" />
        </mxCell>
        <mxCell id="wD-DXvXVYZgzZNdiQsJs-185" value="i = left + i" style="rounded=0;whiteSpace=wrap;html=1;" vertex="1" parent="1">
          <mxGeometry x="180" y="530" width="120" height="60" as="geometry" />
        </mxCell>
        <mxCell id="wD-DXvXVYZgzZNdiQsJs-191" value="" style="edgeStyle=orthogonalEdgeStyle;rounded=0;orthogonalLoop=1;jettySize=auto;html=1;" edge="1" parent="1" source="wD-DXvXVYZgzZNdiQsJs-188" target="wD-DXvXVYZgzZNdiQsJs-190">
          <mxGeometry relative="1" as="geometry" />
        </mxCell>
        <mxCell id="wD-DXvXVYZgzZNdiQsJs-220" value="" style="edgeStyle=orthogonalEdgeStyle;rounded=0;orthogonalLoop=1;jettySize=auto;html=1;" edge="1" parent="1" source="wD-DXvXVYZgzZNdiQsJs-188" target="wD-DXvXVYZgzZNdiQsJs-219">
          <mxGeometry relative="1" as="geometry" />
        </mxCell>
        <mxCell id="wD-DXvXVYZgzZNdiQsJs-188" value="i &amp;lt; right + 1?" style="rhombus;whiteSpace=wrap;html=1;" vertex="1" parent="1">
          <mxGeometry x="160" y="640" width="160" height="80" as="geometry" />
        </mxCell>
        <mxCell id="wD-DXvXVYZgzZNdiQsJs-193" value="" style="edgeStyle=orthogonalEdgeStyle;rounded=0;orthogonalLoop=1;jettySize=auto;html=1;" edge="1" parent="1" source="wD-DXvXVYZgzZNdiQsJs-190" target="wD-DXvXVYZgzZNdiQsJs-192">
          <mxGeometry relative="1" as="geometry" />
        </mxCell>
        <mxCell id="wD-DXvXVYZgzZNdiQsJs-190" value="compareList(ptrLeft,&lt;br&gt;prevI-&amp;gt;next, atr, dir)" style="rhombus;whiteSpace=wrap;html=1;" vertex="1" parent="1">
          <mxGeometry x="160" y="760" width="160" height="80" as="geometry" />
        </mxCell>
        <mxCell id="wD-DXvXVYZgzZNdiQsJs-195" value="" style="edgeStyle=orthogonalEdgeStyle;rounded=0;orthogonalLoop=1;jettySize=auto;html=1;" edge="1" parent="1" source="wD-DXvXVYZgzZNdiQsJs-192" target="wD-DXvXVYZgzZNdiQsJs-194">
          <mxGeometry relative="1" as="geometry" />
        </mxCell>
        <mxCell id="wD-DXvXVYZgzZNdiQsJs-192" value="pivot += 1" style="rounded=0;whiteSpace=wrap;html=1;" vertex="1" parent="1">
          <mxGeometry x="180" y="890" width="120" height="60" as="geometry" />
        </mxCell>
        <mxCell id="wD-DXvXVYZgzZNdiQsJs-197" value="" style="edgeStyle=orthogonalEdgeStyle;rounded=0;orthogonalLoop=1;jettySize=auto;html=1;" edge="1" parent="1" source="wD-DXvXVYZgzZNdiQsJs-194" target="wD-DXvXVYZgzZNdiQsJs-196">
          <mxGeometry relative="1" as="geometry" />
        </mxCell>
        <mxCell id="wD-DXvXVYZgzZNdiQsJs-199" style="edgeStyle=orthogonalEdgeStyle;rounded=0;orthogonalLoop=1;jettySize=auto;html=1;" edge="1" parent="1" source="wD-DXvXVYZgzZNdiQsJs-194" target="wD-DXvXVYZgzZNdiQsJs-198">
          <mxGeometry relative="1" as="geometry" />
        </mxCell>
        <mxCell id="wD-DXvXVYZgzZNdiQsJs-194" value="prevPiv == NULL?" style="rhombus;whiteSpace=wrap;html=1;" vertex="1" parent="1">
          <mxGeometry x="160" y="1000" width="160" height="80" as="geometry" />
        </mxCell>
        <mxCell id="wD-DXvXVYZgzZNdiQsJs-201" value="" style="edgeStyle=orthogonalEdgeStyle;rounded=0;orthogonalLoop=1;jettySize=auto;html=1;" edge="1" parent="1" source="wD-DXvXVYZgzZNdiQsJs-196" target="wD-DXvXVYZgzZNdiQsJs-200">
          <mxGeometry relative="1" as="geometry" />
        </mxCell>
        <mxCell id="wD-DXvXVYZgzZNdiQsJs-196" value="prevPiv = list-&amp;gt;head" style="rounded=0;whiteSpace=wrap;html=1;" vertex="1" parent="1">
          <mxGeometry x="180" y="1130" width="120" height="60" as="geometry" />
        </mxCell>
        <mxCell id="wD-DXvXVYZgzZNdiQsJs-216" style="edgeStyle=orthogonalEdgeStyle;rounded=0;orthogonalLoop=1;jettySize=auto;html=1;" edge="1" parent="1" source="wD-DXvXVYZgzZNdiQsJs-198" target="wD-DXvXVYZgzZNdiQsJs-200">
          <mxGeometry relative="1" as="geometry">
            <Array as="points">
              <mxPoint x="440" y="1220" />
              <mxPoint x="240" y="1220" />
            </Array>
          </mxGeometry>
        </mxCell>
        <mxCell id="wD-DXvXVYZgzZNdiQsJs-198" value="prevPiv =&lt;br&gt;prevPiv-&amp;gt;next" style="rounded=0;whiteSpace=wrap;html=1;" vertex="1" parent="1">
          <mxGeometry x="380" y="1130" width="120" height="60" as="geometry" />
        </mxCell>
        <mxCell id="wD-DXvXVYZgzZNdiQsJs-204" value="" style="edgeStyle=orthogonalEdgeStyle;rounded=0;orthogonalLoop=1;jettySize=auto;html=1;" edge="1" parent="1" source="wD-DXvXVYZgzZNdiQsJs-200" target="wD-DXvXVYZgzZNdiQsJs-202">
          <mxGeometry relative="1" as="geometry" />
        </mxCell>
        <mxCell id="wD-DXvXVYZgzZNdiQsJs-209" value="" style="edgeStyle=orthogonalEdgeStyle;rounded=0;orthogonalLoop=1;jettySize=auto;html=1;" edge="1" parent="1" source="wD-DXvXVYZgzZNdiQsJs-200" target="wD-DXvXVYZgzZNdiQsJs-205">
          <mxGeometry relative="1" as="geometry" />
        </mxCell>
        <mxCell id="wD-DXvXVYZgzZNdiQsJs-200" value="i == pivot?" style="rhombus;whiteSpace=wrap;html=1;" vertex="1" parent="1">
          <mxGeometry x="160" y="1239" width="160" height="80" as="geometry" />
        </mxCell>
        <mxCell id="wD-DXvXVYZgzZNdiQsJs-214" style="edgeStyle=orthogonalEdgeStyle;rounded=0;orthogonalLoop=1;jettySize=auto;html=1;" edge="1" parent="1" source="wD-DXvXVYZgzZNdiQsJs-202" target="wD-DXvXVYZgzZNdiQsJs-212">
          <mxGeometry relative="1" as="geometry">
            <Array as="points">
              <mxPoint x="240" y="1500" />
              <mxPoint x="240" y="1500" />
            </Array>
          </mxGeometry>
        </mxCell>
        <mxCell id="wD-DXvXVYZgzZNdiQsJs-202" value="prevI = prevI-&amp;gt;next" style="rounded=0;whiteSpace=wrap;html=1;" vertex="1" parent="1">
          <mxGeometry x="180" y="1370" width="120" height="60" as="geometry" />
        </mxCell>
        <mxCell id="wD-DXvXVYZgzZNdiQsJs-208" value="" style="edgeStyle=orthogonalEdgeStyle;rounded=0;orthogonalLoop=1;jettySize=auto;html=1;" edge="1" parent="1" source="wD-DXvXVYZgzZNdiQsJs-205" target="wD-DXvXVYZgzZNdiQsJs-207">
          <mxGeometry relative="1" as="geometry" />
        </mxCell>
        <mxCell id="wD-DXvXVYZgzZNdiQsJs-211" style="edgeStyle=orthogonalEdgeStyle;rounded=0;orthogonalLoop=1;jettySize=auto;html=1;" edge="1" parent="1" source="wD-DXvXVYZgzZNdiQsJs-205" target="wD-DXvXVYZgzZNdiQsJs-210">
          <mxGeometry relative="1" as="geometry" />
        </mxCell>
        <mxCell id="wD-DXvXVYZgzZNdiQsJs-205" value="i - pivot == 1?" style="rhombus;whiteSpace=wrap;html=1;" vertex="1" parent="1">
          <mxGeometry x="360" y="1239" width="160" height="80" as="geometry" />
        </mxCell>
        <mxCell id="wD-DXvXVYZgzZNdiQsJs-215" style="edgeStyle=orthogonalEdgeStyle;rounded=0;orthogonalLoop=1;jettySize=auto;html=1;" edge="1" parent="1" source="wD-DXvXVYZgzZNdiQsJs-207" target="wD-DXvXVYZgzZNdiQsJs-212">
          <mxGeometry relative="1" as="geometry">
            <Array as="points">
              <mxPoint x="440" y="1460" />
              <mxPoint x="240" y="1460" />
            </Array>
          </mxGeometry>
        </mxCell>
        <mxCell id="wD-DXvXVYZgzZNdiQsJs-207" value="swapNeghbours&lt;br&gt;(prevPiv)" style="rounded=0;whiteSpace=wrap;html=1;" vertex="1" parent="1">
          <mxGeometry x="380" y="1370" width="120" height="60" as="geometry" />
        </mxCell>
        <mxCell id="wD-DXvXVYZgzZNdiQsJs-213" value="" style="edgeStyle=orthogonalEdgeStyle;rounded=0;orthogonalLoop=1;jettySize=auto;html=1;" edge="1" parent="1" source="wD-DXvXVYZgzZNdiQsJs-210" target="wD-DXvXVYZgzZNdiQsJs-212">
          <mxGeometry relative="1" as="geometry">
            <Array as="points">
              <mxPoint x="640" y="1460" />
              <mxPoint x="240" y="1460" />
            </Array>
          </mxGeometry>
        </mxCell>
        <mxCell id="wD-DXvXVYZgzZNdiQsJs-210" value="swap(prevPiv, prevI)" style="rounded=0;whiteSpace=wrap;html=1;" vertex="1" parent="1">
          <mxGeometry x="580" y="1370" width="120" height="60" as="geometry" />
        </mxCell>
        <mxCell id="wD-DXvXVYZgzZNdiQsJs-217" style="edgeStyle=orthogonalEdgeStyle;rounded=0;orthogonalLoop=1;jettySize=auto;html=1;" edge="1" parent="1" source="wD-DXvXVYZgzZNdiQsJs-212" target="wD-DXvXVYZgzZNdiQsJs-188">
          <mxGeometry relative="1" as="geometry">
            <Array as="points">
              <mxPoint x="150" y="1530" />
              <mxPoint x="150" y="620" />
              <mxPoint x="240" y="620" />
            </Array>
          </mxGeometry>
        </mxCell>
        <mxCell id="wD-DXvXVYZgzZNdiQsJs-212" value="prevI = prevI-&amp;gt;next&lt;br&gt;i += 1" style="rounded=0;whiteSpace=wrap;html=1;" vertex="1" parent="1">
          <mxGeometry x="180" y="1500" width="120" height="60" as="geometry" />
        </mxCell>
        <mxCell id="wD-DXvXVYZgzZNdiQsJs-248" style="edgeStyle=orthogonalEdgeStyle;rounded=0;orthogonalLoop=1;jettySize=auto;html=1;" edge="1" parent="1" source="wD-DXvXVYZgzZNdiQsJs-218" target="wD-DXvXVYZgzZNdiQsJs-247">
          <mxGeometry relative="1" as="geometry" />
        </mxCell>
        <mxCell id="wD-DXvXVYZgzZNdiQsJs-218" value="ret = pivot" style="rounded=0;whiteSpace=wrap;html=1;" vertex="1" parent="1">
          <mxGeometry x="780" y="1010" width="120" height="60" as="geometry" />
        </mxCell>
        <mxCell id="wD-DXvXVYZgzZNdiQsJs-224" value="" style="edgeStyle=orthogonalEdgeStyle;rounded=0;orthogonalLoop=1;jettySize=auto;html=1;" edge="1" parent="1" source="wD-DXvXVYZgzZNdiQsJs-219" target="wD-DXvXVYZgzZNdiQsJs-222">
          <mxGeometry relative="1" as="geometry" />
        </mxCell>
        <mxCell id="wD-DXvXVYZgzZNdiQsJs-242" style="edgeStyle=orthogonalEdgeStyle;rounded=0;orthogonalLoop=1;jettySize=auto;html=1;" edge="1" parent="1" source="wD-DXvXVYZgzZNdiQsJs-219" target="wD-DXvXVYZgzZNdiQsJs-218">
          <mxGeometry relative="1" as="geometry">
            <Array as="points">
              <mxPoint x="440" y="980" />
              <mxPoint x="840" y="980" />
            </Array>
          </mxGeometry>
        </mxCell>
        <mxCell id="wD-DXvXVYZgzZNdiQsJs-219" value="pivot == left?" style="rhombus;whiteSpace=wrap;html=1;" vertex="1" parent="1">
          <mxGeometry x="360" y="640" width="160" height="80" as="geometry" />
        </mxCell>
        <mxCell id="wD-DXvXVYZgzZNdiQsJs-226" value="" style="edgeStyle=orthogonalEdgeStyle;rounded=0;orthogonalLoop=1;jettySize=auto;html=1;" edge="1" parent="1" source="wD-DXvXVYZgzZNdiQsJs-222" target="wD-DXvXVYZgzZNdiQsJs-225">
          <mxGeometry relative="1" as="geometry" />
        </mxCell>
        <mxCell id="wD-DXvXVYZgzZNdiQsJs-237" style="edgeStyle=orthogonalEdgeStyle;rounded=0;orthogonalLoop=1;jettySize=auto;html=1;" edge="1" parent="1" source="wD-DXvXVYZgzZNdiQsJs-222" target="wD-DXvXVYZgzZNdiQsJs-231">
          <mxGeometry relative="1" as="geometry" />
        </mxCell>
        <mxCell id="wD-DXvXVYZgzZNdiQsJs-222" value="left == 0?" style="rhombus;whiteSpace=wrap;html=1;" vertex="1" parent="1">
          <mxGeometry x="560" y="640" width="160" height="80" as="geometry" />
        </mxCell>
        <mxCell id="wD-DXvXVYZgzZNdiQsJs-228" value="" style="edgeStyle=orthogonalEdgeStyle;rounded=0;orthogonalLoop=1;jettySize=auto;html=1;" edge="1" parent="1" source="wD-DXvXVYZgzZNdiQsJs-225" target="wD-DXvXVYZgzZNdiQsJs-227">
          <mxGeometry relative="1" as="geometry" />
        </mxCell>
        <mxCell id="wD-DXvXVYZgzZNdiQsJs-230" style="edgeStyle=orthogonalEdgeStyle;rounded=0;orthogonalLoop=1;jettySize=auto;html=1;" edge="1" parent="1" source="wD-DXvXVYZgzZNdiQsJs-225" target="wD-DXvXVYZgzZNdiQsJs-229">
          <mxGeometry relative="1" as="geometry" />
        </mxCell>
        <mxCell id="wD-DXvXVYZgzZNdiQsJs-225" value="list-&amp;gt;head == prevPiv" style="rhombus;whiteSpace=wrap;html=1;" vertex="1" parent="1">
          <mxGeometry x="560" y="770" width="160" height="80" as="geometry" />
        </mxCell>
        <mxCell id="wD-DXvXVYZgzZNdiQsJs-243" style="edgeStyle=orthogonalEdgeStyle;rounded=0;orthogonalLoop=1;jettySize=auto;html=1;" edge="1" parent="1" source="wD-DXvXVYZgzZNdiQsJs-227" target="wD-DXvXVYZgzZNdiQsJs-218">
          <mxGeometry relative="1" as="geometry">
            <Array as="points">
              <mxPoint x="640" y="980" />
              <mxPoint x="840" y="980" />
            </Array>
          </mxGeometry>
        </mxCell>
        <mxCell id="wD-DXvXVYZgzZNdiQsJs-227" value="swapHeadNeghbours&lt;br&gt;(list)" style="rounded=0;whiteSpace=wrap;html=1;" vertex="1" parent="1">
          <mxGeometry x="580" y="890" width="120" height="60" as="geometry" />
        </mxCell>
        <mxCell id="wD-DXvXVYZgzZNdiQsJs-244" style="edgeStyle=orthogonalEdgeStyle;rounded=0;orthogonalLoop=1;jettySize=auto;html=1;" edge="1" parent="1" source="wD-DXvXVYZgzZNdiQsJs-229" target="wD-DXvXVYZgzZNdiQsJs-218">
          <mxGeometry relative="1" as="geometry">
            <Array as="points">
              <mxPoint x="840" y="1010" />
              <mxPoint x="840" y="1010" />
            </Array>
          </mxGeometry>
        </mxCell>
        <mxCell id="wD-DXvXVYZgzZNdiQsJs-229" value="swapHead(list, prevPiv)" style="rounded=0;whiteSpace=wrap;html=1;" vertex="1" parent="1">
          <mxGeometry x="780" y="890" width="120" height="60" as="geometry" />
        </mxCell>
        <mxCell id="wD-DXvXVYZgzZNdiQsJs-238" value="" style="edgeStyle=orthogonalEdgeStyle;rounded=0;orthogonalLoop=1;jettySize=auto;html=1;" edge="1" parent="1" source="wD-DXvXVYZgzZNdiQsJs-231" target="wD-DXvXVYZgzZNdiQsJs-233">
          <mxGeometry relative="1" as="geometry" />
        </mxCell>
        <mxCell id="wD-DXvXVYZgzZNdiQsJs-231" value="ptrToIndx(list, &amp;amp;prevLeft, left - 1)" style="rounded=0;whiteSpace=wrap;html=1;" vertex="1" parent="1">
          <mxGeometry x="980" y="770" width="120" height="60" as="geometry" />
        </mxCell>
        <mxCell id="wD-DXvXVYZgzZNdiQsJs-239" value="" style="edgeStyle=orthogonalEdgeStyle;rounded=0;orthogonalLoop=1;jettySize=auto;html=1;" edge="1" parent="1" source="wD-DXvXVYZgzZNdiQsJs-233" target="wD-DXvXVYZgzZNdiQsJs-236">
          <mxGeometry relative="1" as="geometry" />
        </mxCell>
        <mxCell id="wD-DXvXVYZgzZNdiQsJs-241" style="edgeStyle=orthogonalEdgeStyle;rounded=0;orthogonalLoop=1;jettySize=auto;html=1;" edge="1" parent="1" source="wD-DXvXVYZgzZNdiQsJs-233" target="wD-DXvXVYZgzZNdiQsJs-240">
          <mxGeometry relative="1" as="geometry" />
        </mxCell>
        <mxCell id="wD-DXvXVYZgzZNdiQsJs-233" value="prevLeft-&amp;gt;next == prevPiv" style="rhombus;whiteSpace=wrap;html=1;" vertex="1" parent="1">
          <mxGeometry x="960" y="880" width="160" height="80" as="geometry" />
        </mxCell>
        <mxCell id="wD-DXvXVYZgzZNdiQsJs-245" style="edgeStyle=orthogonalEdgeStyle;rounded=0;orthogonalLoop=1;jettySize=auto;html=1;" edge="1" parent="1" source="wD-DXvXVYZgzZNdiQsJs-236" target="wD-DXvXVYZgzZNdiQsJs-218">
          <mxGeometry relative="1" as="geometry">
            <Array as="points">
              <mxPoint x="1040" y="1080" />
              <mxPoint x="940" y="1080" />
              <mxPoint x="940" y="1040" />
            </Array>
          </mxGeometry>
        </mxCell>
        <mxCell id="wD-DXvXVYZgzZNdiQsJs-236" value="swapNeghbours&lt;br&gt;(prevLeft)" style="rounded=0;whiteSpace=wrap;html=1;" vertex="1" parent="1">
          <mxGeometry x="980" y="1010" width="120" height="60" as="geometry" />
        </mxCell>
        <mxCell id="wD-DXvXVYZgzZNdiQsJs-246" style="edgeStyle=orthogonalEdgeStyle;rounded=0;orthogonalLoop=1;jettySize=auto;html=1;" edge="1" parent="1" source="wD-DXvXVYZgzZNdiQsJs-240" target="wD-DXvXVYZgzZNdiQsJs-218">
          <mxGeometry relative="1" as="geometry">
            <Array as="points">
              <mxPoint x="1241" y="1080" />
              <mxPoint x="940" y="1080" />
              <mxPoint x="940" y="1040" />
            </Array>
          </mxGeometry>
        </mxCell>
        <mxCell id="wD-DXvXVYZgzZNdiQsJs-240" value="swap(prevLeft, prevPiv)" style="rounded=0;whiteSpace=wrap;html=1;" vertex="1" parent="1">
          <mxGeometry x="1181" y="1010" width="120" height="60" as="geometry" />
        </mxCell>
        <mxCell id="wD-DXvXVYZgzZNdiQsJs-247" value="Конец" style="strokeWidth=1;html=1;shape=mxgraph.flowchart.terminator;whiteSpace=wrap;" vertex="1" parent="1">
          <mxGeometry x="780" y="1490" width="120" height="60" as="geometry" />
        </mxCell>
        <mxCell id="wD-DXvXVYZgzZNdiQsJs-249" value="&lt;span style=&quot;font-size: 20px;&quot;&gt;I&lt;/span&gt;" style="text;html=1;align=center;verticalAlign=middle;whiteSpace=wrap;rounded=0;" vertex="1" parent="1">
          <mxGeometry x="100" y="1025" width="60" height="30" as="geometry" />
        </mxCell>
        <mxCell id="wD-DXvXVYZgzZNdiQsJs-251" value="&lt;span style=&quot;font-size: 20px;&quot;&gt;J&lt;/span&gt;" style="text;html=1;align=center;verticalAlign=middle;whiteSpace=wrap;rounded=0;" vertex="1" parent="1">
          <mxGeometry x="100" y="1145" width="60" height="30" as="geometry" />
        </mxCell>
        <mxCell id="wD-DXvXVYZgzZNdiQsJs-252" value="&lt;span style=&quot;font-size: 20px;&quot;&gt;K&lt;/span&gt;" style="text;html=1;align=center;verticalAlign=middle;whiteSpace=wrap;rounded=0;" vertex="1" parent="1">
          <mxGeometry x="100" y="1264" width="60" height="30" as="geometry" />
        </mxCell>
        <mxCell id="wD-DXvXVYZgzZNdiQsJs-253" value="&lt;span style=&quot;font-size: 20px;&quot;&gt;L&lt;/span&gt;" style="text;html=1;align=center;verticalAlign=middle;whiteSpace=wrap;rounded=0;" vertex="1" parent="1">
          <mxGeometry x="100" y="1385" width="60" height="30" as="geometry" />
        </mxCell>
        <mxCell id="wD-DXvXVYZgzZNdiQsJs-254" value="&lt;span style=&quot;font-size: 20px;&quot;&gt;M&lt;/span&gt;" style="text;html=1;align=center;verticalAlign=middle;whiteSpace=wrap;rounded=0;" vertex="1" parent="1">
          <mxGeometry x="100" y="1505" width="60" height="30" as="geometry" />
        </mxCell>
        <mxCell id="wD-DXvXVYZgzZNdiQsJs-255" value="&lt;span style=&quot;font-size: 20px;&quot;&gt;4&lt;/span&gt;" style="text;html=1;align=center;verticalAlign=middle;whiteSpace=wrap;rounded=0;" vertex="1" parent="1">
          <mxGeometry x="810" y="10" width="60" height="30" as="geometry" />
        </mxCell>
        <mxCell id="wD-DXvXVYZgzZNdiQsJs-256" value="&lt;span style=&quot;font-size: 20px;&quot;&gt;5&lt;/span&gt;" style="text;html=1;align=center;verticalAlign=middle;whiteSpace=wrap;rounded=0;" vertex="1" parent="1">
          <mxGeometry x="1010" y="10" width="60" height="30" as="geometry" />
        </mxCell>
        <mxCell id="wD-DXvXVYZgzZNdiQsJs-257" value="&lt;span style=&quot;font-size: 20px;&quot;&gt;6&lt;/span&gt;" style="text;html=1;align=center;verticalAlign=middle;whiteSpace=wrap;rounded=0;" vertex="1" parent="1">
          <mxGeometry x="1210.5" y="10" width="60" height="30" as="geometry" />
        </mxCell>
      </root>
    </mxGraphModel>
  </diagram>
</mxfile>
